<mxfile host="app.diagrams.net" modified="2022-03-15T17:15:26.623Z" agent="5.0 (Windows NT 10.0; Win64; x64) AppleWebKit/537.36 (KHTML, like Gecko) Chrome/99.0.4844.51 Safari/537.36 Edg/99.0.1150.39" etag="HSu5zM3MM4yXyU-7X4ZU" version="17.1.2" type="github">
  <diagram id="R2lEEEUBdFMjLlhIrx00" name="Page-1">
    <mxGraphModel dx="2071" dy="681" grid="1" gridSize="10" guides="1" tooltips="1" connect="1" arrows="1" fold="1" page="1" pageScale="1" pageWidth="850" pageHeight="1100" math="0" shadow="0" extFonts="Permanent Marker^https://fonts.googleapis.com/css?family=Permanent+Marker">
      <root>
        <mxCell id="0" />
        <mxCell id="1" parent="0" />
        <mxCell id="Cz97-bWAenH0swvZZhy6-1" value="Student" style="whiteSpace=wrap;html=1;align=center;" vertex="1" parent="1">
          <mxGeometry x="180" y="120" width="100" height="40" as="geometry" />
        </mxCell>
        <mxCell id="Cz97-bWAenH0swvZZhy6-2" value="Department" style="whiteSpace=wrap;html=1;align=center;" vertex="1" parent="1">
          <mxGeometry x="570" y="120" width="100" height="40" as="geometry" />
        </mxCell>
        <mxCell id="Cz97-bWAenH0swvZZhy6-3" value="Course" style="whiteSpace=wrap;html=1;align=center;" vertex="1" parent="1">
          <mxGeometry x="180" y="380" width="100" height="40" as="geometry" />
        </mxCell>
        <mxCell id="Cz97-bWAenH0swvZZhy6-4" value="Section" style="whiteSpace=wrap;html=1;align=center;" vertex="1" parent="1">
          <mxGeometry x="580" y="380" width="100" height="40" as="geometry" />
        </mxCell>
        <mxCell id="Cz97-bWAenH0swvZZhy6-5" value="Grade" style="whiteSpace=wrap;html=1;align=center;" vertex="1" parent="1">
          <mxGeometry x="-160" y="120" width="100" height="40" as="geometry" />
        </mxCell>
        <mxCell id="Cz97-bWAenH0swvZZhy6-6" value="Report" style="shape=rhombus;perimeter=rhombusPerimeter;whiteSpace=wrap;html=1;align=center;" vertex="1" parent="1">
          <mxGeometry x="10" y="110" width="120" height="60" as="geometry" />
        </mxCell>
      </root>
    </mxGraphModel>
  </diagram>
</mxfile>
